<svg xmlns="http://www.w3.org/2000/svg" style="display: none;"><symbol id="copy" viewBox="0 0 64 64"><title>copy</title><path d="M53.9791489,9.1429005H50.010849c-0.0826988,0-0.1562004,0.0283995-0.2331009,0.0469999V5.0228 C49.7777481,2.253,47.4731483,0,44.6398468,0h-34.422596C7.3839517,0,5.0793519,2.253,5.0793519,5.0228v46.8432999 c0,2.7697983,2.3045998,5.0228004,5.1378999,5.0228004h6.0367002v2.2678986C16.253952,61.8274002,18.4702511,64,21.1954517,64 h32.783699c2.7252007,0,4.9414978-2.1725998,4.9414978-4.8432007V13.9861002 C58.9206467,11.3155003,56.7043495,9.1429005,53.9791489,9.1429005z M7.1110516,51.8661003V5.0228 c0-1.6487999,1.3938999-2.9909999,3.1062002-2.9909999h34.422596c1.7123032,0,3.1062012,1.3422,3.1062012,2.9909999v46.8432999 c0,1.6487999-1.393898,2.9911003-3.1062012,2.9911003h-34.422596C8.5049515,54.8572006,7.1110516,53.5149002,7.1110516,51.8661003z M56.8888474,59.1567993c0,1.550602-1.3055,2.8115005-2.9096985,2.8115005h-32.783699 c-1.6042004,0-2.9097996-1.2608986-2.9097996-2.8115005v-2.2678986h26.3541946 c2.8333015,0,5.1379013-2.2530022,5.1379013-5.0228004V11.1275997c0.0769005,0.0186005,0.1504021,0.0469999,0.2331009,0.0469999 h3.9682999c1.6041985,0,2.9096985,1.2609005,2.9096985,2.8115005V59.1567993z"/><path d="M38.6031494,13.2063999H16.253952c-0.5615005,0-1.0159006,0.4542999-1.0159006,1.0158005 c0,0.5615997,0.4544001,1.0158997,1.0159006,1.0158997h22.3491974c0.5615005,0,1.0158997-0.4542999,1.0158997-1.0158997 C39.6190491,13.6606998,39.16465,13.2063999,38.6031494,13.2063999z"/><path d="M38.6031494,21.3334007H16.253952c-0.5615005,0-1.0159006,0.4542999-1.0159006,1.0157986 c0,0.5615005,0.4544001,1.0159016,1.0159006,1.0159016h22.3491974c0.5615005,0,1.0158997-0.454401,1.0158997-1.0159016 C39.6190491,21.7877007,39.16465,21.3334007,38.6031494,21.3334007z"/><path d="M38.6031494,29.4603004H16.253952c-0.5615005,0-1.0159006,0.4543991-1.0159006,1.0158997 s0.4544001,1.0158997,1.0159006,1.0158997h22.3491974c0.5615005,0,1.0158997-0.4543991,1.0158997-1.0158997 S39.16465,29.4603004,38.6031494,29.4603004z"/><path d="M28.4444485,37.5872993H16.253952c-0.5615005,0-1.0159006,0.4543991-1.0159006,1.0158997 s0.4544001,1.0158997,1.0159006,1.0158997h12.1904964c0.5615025,0,1.0158005-0.4543991,1.0158005-1.0158997 S29.0059509,37.5872993,28.4444485,37.5872993z"/></symbol><symbol id="residential" viewBox="0 0 485 485"><title>residential</title><rect x="298.333" y="292" width="115.833" height="30"/><rect x="298.333" y="219" width="115.833" height="30"/><rect x="298.333" y="146" width="115.833" height="30"/><rect x="70.833" y="292" width="115.833" height="30"/><rect x="70.833" y="219" width="115.833" height="30"/><rect x="70.833" y="146" width="115.833" height="30"/><rect x="70.833" y="73" width="115.833" height="30"/><path d="M257.5,73V0H0v485h485V73H257.5z M227.5,455h-83.75v-54.16h-30V455H30V30h197.5V455z M455,455h-83.75v-54.16h-30V455H257.5 V103H455V455z"/></symbol><symbol id="box" viewBox="0 0 512 512"><title>box</title><path d="M55.467,443.733c-7.057,0-12.8,5.743-12.8,12.8c0,7.057,5.743,12.8,12.8,12.8s12.8-5.743,12.8-12.8 C68.267,449.476,62.524,443.733,55.467,443.733z"/><path d="M55.467,42.667c-7.057,0-12.8,5.743-12.8,12.8s5.743,12.8,12.8,12.8s12.8-5.743,12.8-12.8S62.524,42.667,55.467,42.667z"/><path d="M273.067,358.4h-34.133c-9.412,0-17.067,7.654-17.067,17.067V409.6c0,9.412,7.654,17.067,17.067,17.067h34.133 c9.412,0,17.067-7.654,17.067-17.067v-34.133C290.133,366.054,282.479,358.4,273.067,358.4z M238.933,409.6v-34.133h34.133 l0.008,34.133H238.933z"/><path d="M456.533,42.667c-7.057,0-12.8,5.743-12.8,12.8s5.743,12.8,12.8,12.8c7.057,0,12.8-5.743,12.8-12.8 S463.59,42.667,456.533,42.667z"/><path d="M469.333,0H42.667C19.14,0,0,19.14,0,42.667v426.667C0,492.86,19.14,512,42.667,512h426.667 C492.86,512,512,492.86,512,469.333V42.667C512,19.14,492.86,0,469.333,0z M494.933,469.333c0,14.114-11.486,25.6-25.6,25.6 H42.667c-14.114,0-25.6-11.486-25.6-25.6V42.667c0-14.114,11.486-25.6,25.6-25.6h426.667c14.114,0,25.6,11.486,25.6,25.6V469.333 z"/><path d="M456.533,443.733c-7.057,0-12.8,5.743-12.8,12.8c0,7.057,5.743,12.8,12.8,12.8c7.057,0,12.8-5.743,12.8-12.8 C469.333,449.476,463.59,443.733,456.533,443.733z"/><path d="M256,85.333c-56.337,0-99.814,36.198-110.771,92.228c-0.794,4.028,1.399,8.038,5.197,9.566l42.667,17.067 c2.185,0.862,4.625,0.794,6.767-0.188c2.125-0.981,3.763-2.807,4.506-5.043C210.005,182.025,224.23,153.6,256,153.6 c28.237,0,51.2,22.963,51.2,51.2c0,19.78-13.551,29.636-35.661,44.075c-3.985,2.603-8.064,5.265-12.109,8.081 c-24.363,16.939-37.564,31.326-37.564,58.778v8.533c0,9.412,7.654,17.067,17.067,17.067h34.133 c9.574,0,17.067-7.492,17.067-17.067c0-13.005,11.255-21.222,29.619-33.536c24.815-16.648,55.714-37.376,55.714-85.931 C375.467,138.923,321.877,85.333,256,85.333z M310.238,276.557c-18.27,12.262-37.171,24.943-36.992,47.693 c0,0-0.051,0.017-0.179,0.017h-34.133v-8.533c0-18.415,6.784-28.459,30.234-44.766c3.908-2.722,7.851-5.291,11.708-7.808 c21.333-13.926,43.392-28.331,43.392-58.359c0-37.641-30.626-68.267-68.267-68.267c-28.518,0-51.721,17.57-64.666,48.572 l-27.81-11.127C174.933,129.63,209.801,102.4,256,102.4c56.465,0,102.4,45.935,102.4,102.4 C358.4,244.25,333.918,260.676,310.238,276.557z"/></symbol><symbol id="alarm" viewBox="0 0 485.449 485.449"><title>alarm</title><path d="M470.225,385.449h-25v-60.208l-30-30v-75.607c0-78.331-52.922-146.484-127.5-166.558V45c0-24.813-20.187-45-45-45 c-24.813,0-45,20.187-45,45v8.076c-74.579,20.074-127.5,88.227-127.5,166.558v75.607l-30,30v60.208h-25v30h143.852 c7.108,39.736,41.898,70,83.648,70s76.539-30.264,83.648-70h143.852V385.449z M70.225,337.668l30-30v-88.034 c0-68.176,48.508-127.015,115.341-139.905l12.159-2.345V45c0-8.271,6.729-15,15-15c8.271,0,15,6.729,15,15v32.383l12.159,2.345 c66.833,12.89,115.341,71.729,115.341,139.905v88.034l30,30v47.781h-345V337.668z M242.725,455.449 c-25.127,0-46.356-16.943-52.904-40h105.807C289.081,438.506,267.851,455.449,242.725,455.449z"/></symbol><symbol id="chat" viewBox="0 0 511.999 511.999"><title>chat</title><g> <g> <path d="M372.29,50.758H28.831C12.933,50.758,0,63.691,0,79.588v206.056c0,15.897,12.933,28.831,28.831,28.831h22.271v76.71 c0,4.884,2.942,9.289,7.456,11.159c1.494,0.62,3.064,0.92,4.62,0.92c3.144,0,6.232-1.228,8.543-3.538l85.251-85.25h17.104 c6.671,0,12.078-5.407,12.078-12.078c0-6.672-5.409-12.079-12.078-12.079c0,0-22.69,0.016-22.927,0.04 c-2.812,0.191-5.572,1.349-7.722,3.498l-68.169,68.169c0,0-0.021-60.392-0.06-60.705c-0.545-6.166-5.717-11.002-12.024-11.002 H28.831c-2.578,0-4.674-2.097-4.674-4.674V79.588c0-2.578,2.097-4.674,4.674-4.674H372.29c2.578,0,4.674,2.097,4.674,4.674v79.055 c0,6.671,5.409,12.078,12.078,12.078s12.078-5.407,12.078-12.078V79.588C401.12,63.691,388.187,50.758,372.29,50.758z"/> </g> </g><g> <g> <path d="M483.169,198.492H242.754c-15.897,0-28.831,12.933-28.831,28.831v140.57c0,15.897,12.933,28.831,28.831,28.831h150.514 l60.98,60.98c2.311,2.311,5.4,3.538,8.543,3.538c1.556,0,3.126-0.301,4.62-0.92c4.512-1.87,7.456-6.273,7.456-11.159v-52.44h8.301 c15.897,0,28.831-12.933,28.831-28.831V227.322C512,211.425,499.067,198.492,483.169,198.492z M487.844,367.893 c0,2.577-2.097,4.674-4.674,4.674h-20.376c-6.356,0-11.554,4.912-12.031,11.147c-0.031,0.264-0.051,36.29-0.051,36.29 l-43.854-43.855c-0.046-0.046-0.094-0.089-0.14-0.135c-0.172-0.168-0.335-0.314-0.489-0.445c-2.126-1.864-4.903-3.003-7.951-3.003 H242.754c-2.578,0-4.674-2.097-4.674-4.674v-140.57c0-2.578,2.097-4.674,4.674-4.674h240.416c2.577,0,4.674,2.097,4.674,4.674 V367.893z"/> </g> </g><g> <g> <path d="M362.964,285.53c-6.667,0-12.078,5.411-12.078,12.078c0,6.667,5.411,12.078,12.078,12.078 c6.668,0,12.078-5.411,12.078-12.078C375.042,290.941,369.631,285.53,362.964,285.53z"/> </g> </g><g> <g> <path d="M310.472,130.611c0,0-219.822,0-219.822,0c-6.67,0-12.078,5.407-12.078,12.078s5.409,12.078,12.078,12.078h219.822 c6.67,0,12.078-5.407,12.078-12.078S317.142,130.611,310.472,130.611z"/> </g> </g><g> <g> <path d="M174.075,210.465H90.65c-6.67,0-12.078,5.407-12.078,12.078c0,6.671,5.409,12.078,12.078,12.078h83.425 c6.671,0,12.078-5.407,12.078-12.078S180.745,210.465,174.075,210.465z"/> </g> </g><g> <g> <path d="M306.837,285.53c-6.666,0-12.078,5.411-12.078,12.078c0,6.667,5.412,12.078,12.078,12.078 c6.668,0,12.078-5.411,12.078-12.078C318.915,290.941,313.505,285.53,306.837,285.53z"/> </g> </g><g> <g> <path d="M419.079,285.53c-6.667,0-12.078,5.411-12.078,12.078c0,6.667,5.411,12.078,12.078,12.078 c6.668,0,12.078-5.411,12.078-12.078C431.157,290.941,425.746,285.53,419.079,285.53z"/> </g> </g></symbol><symbol id="settings" viewBox="0 0 54 54"><title>settings</title><path d="M51.22,21h-5.052c-0.812,0-1.481-0.447-1.792-1.197s-0.153-1.54,0.42-2.114l3.572-3.571 c0.525-0.525,0.814-1.224,0.814-1.966c0-0.743-0.289-1.441-0.814-1.967l-4.553-4.553c-1.05-1.05-2.881-1.052-3.933,0l-3.571,3.571 c-0.574,0.573-1.366,0.733-2.114,0.421C33.447,9.313,33,8.644,33,7.832V2.78C33,1.247,31.753,0,30.22,0H23.78 C22.247,0,21,1.247,21,2.78v5.052c0,0.812-0.447,1.481-1.197,1.792c-0.748,0.313-1.54,0.152-2.114-0.421l-3.571-3.571 c-1.052-1.052-2.883-1.05-3.933,0l-4.553,4.553c-0.525,0.525-0.814,1.224-0.814,1.967c0,0.742,0.289,1.44,0.814,1.966l3.572,3.571 c0.573,0.574,0.73,1.364,0.42,2.114S8.644,21,7.832,21H2.78C1.247,21,0,22.247,0,23.78v6.439C0,31.753,1.247,33,2.78,33h5.052 c0.812,0,1.481,0.447,1.792,1.197s0.153,1.54-0.42,2.114l-3.572,3.571c-0.525,0.525-0.814,1.224-0.814,1.966 c0,0.743,0.289,1.441,0.814,1.967l4.553,4.553c1.051,1.051,2.881,1.053,3.933,0l3.571-3.572c0.574-0.573,1.363-0.731,2.114-0.42 c0.75,0.311,1.197,0.98,1.197,1.792v5.052c0,1.533,1.247,2.78,2.78,2.78h6.439c1.533,0,2.78-1.247,2.78-2.78v-5.052 c0-0.812,0.447-1.481,1.197-1.792c0.751-0.312,1.54-0.153,2.114,0.42l3.571,3.572c1.052,1.052,2.883,1.05,3.933,0l4.553-4.553 c0.525-0.525,0.814-1.224,0.814-1.967c0-0.742-0.289-1.44-0.814-1.966l-3.572-3.571c-0.573-0.574-0.73-1.364-0.42-2.114 S45.356,33,46.168,33h5.052c1.533,0,2.78-1.247,2.78-2.78V23.78C54,22.247,52.753,21,51.22,21z M52,30.22 C52,30.65,51.65,31,51.22,31h-5.052c-1.624,0-3.019,0.932-3.64,2.432c-0.622,1.5-0.295,3.146,0.854,4.294l3.572,3.571 c0.305,0.305,0.305,0.8,0,1.104l-4.553,4.553c-0.304,0.304-0.799,0.306-1.104,0l-3.571-3.572c-1.149-1.149-2.794-1.474-4.294-0.854 c-1.5,0.621-2.432,2.016-2.432,3.64v5.052C31,51.65,30.65,52,30.22,52H23.78C23.35,52,23,51.65,23,51.22v-5.052 c0-1.624-0.932-3.019-2.432-3.64c-0.503-0.209-1.021-0.311-1.533-0.311c-1.014,0-1.997,0.4-2.761,1.164l-3.571,3.572 c-0.306,0.306-0.801,0.304-1.104,0l-4.553-4.553c-0.305-0.305-0.305-0.8,0-1.104l3.572-3.571c1.148-1.148,1.476-2.794,0.854-4.294 C10.851,31.932,9.456,31,7.832,31H2.78C2.35,31,2,30.65,2,30.22V23.78C2,23.35,2.35,23,2.78,23h5.052 c1.624,0,3.019-0.932,3.64-2.432c0.622-1.5,0.295-3.146-0.854-4.294l-3.572-3.571c-0.305-0.305-0.305-0.8,0-1.104l4.553-4.553 c0.304-0.305,0.799-0.305,1.104,0l3.571,3.571c1.147,1.147,2.792,1.476,4.294,0.854C22.068,10.851,23,9.456,23,7.832V2.78 C23,2.35,23.35,2,23.78,2h6.439C30.65,2,31,2.35,31,2.78v5.052c0,1.624,0.932,3.019,2.432,3.64 c1.502,0.622,3.146,0.294,4.294-0.854l3.571-3.571c0.306-0.305,0.801-0.305,1.104,0l4.553,4.553c0.305,0.305,0.305,0.8,0,1.104 l-3.572,3.571c-1.148,1.148-1.476,2.794-0.854,4.294c0.621,1.5,2.016,2.432,3.64,2.432h5.052C51.65,23,52,23.35,52,23.78V30.22z"/><path d="M27,18c-4.963,0-9,4.037-9,9s4.037,9,9,9s9-4.037,9-9S31.963,18,27,18z M27,34c-3.859,0-7-3.141-7-7s3.141-7,7-7 s7,3.141,7,7S30.859,34,27,34z"/></symbol><symbol id="team" viewBox="0 0 496 496"><title>team</title><path d="M496,286.216c0-28.064-15.984-52.624-40-64.48V96c0-52.936-43.064-96-96-96c-52.936,0-96,43.064-96,96v9.456 c-10.12-1.728-20.64-1.912-31.216-0.272c-0.568,0.088-1.128,0.24-1.696,0.336C231.64,102.384,232,99.216,232,96V64 c0-12.656-9.84-23.056-22.28-23.936C193.544,15.232,165.712,0,136,0C87.48,0,48,39.48,48,88v8c0,18.28,9.128,35.352,24,45.768 v0.456c0,20.16,9.392,38.144,24,49.88v17.128L60.168,215.2C25.304,221,0,250.872,0,286.216V352h141.504 C114.264,362.696,96,388.848,96,418.912V496h304v-77.088c0-30.064-18.264-56.216-45.504-66.912H496V286.216z M280,96 c0-44.112,35.888-80,80-80s80,35.888,80,80v120.08c-1.384-0.312-2.752-0.648-4.168-0.888L400,209.224v-17.128 c14.608-11.744,24-29.72,24-49.88l-0.056-50.688L412.6,96.752C412.44,96.832,396.456,104,360,104s-52.44-7.168-52.536-7.208 L296,91.296v25.656c-5.08-2.936-10.456-5.344-16-7.312V96z M331.344,152.496c-5.2-9.128-11.784-17.12-19.344-23.896v-13.64 c9.512,2.392,25.2,5.04,48,5.04s38.488-2.648,48-5.04v27.256c0,26.472-21.528,48-48,48c-2.68,0-5.344-0.296-8-0.752V177.68 C352,165.24,343.112,154.848,331.344,152.496z M345.04,241.824C349.488,231.192,352,219.736,352,208v-2.36 c2.656,0.336,5.328,0.584,8,0.584c8.488,0,16.584-1.696,24-4.712v13.2l-24,72L345.04,241.824z M345.696,294.392l-21.912-21.912 c3.944-3.664,7.44-7.704,10.616-11.984L345.696,294.392z M397.432,225.008l12.64,2.104l5.24,26.256l-41.008,41.016 L397.432,225.008z M235.216,120.992c34.488-5.344,68.192,11.832,83.968,42.648l2.24,4.36h4.888c5.344,0,9.688,4.344,9.688,9.68 V208c0,16.512-5.824,32.448-16.008,45.136l-0.04-49.08l-11.056,4.568C308.72,208.704,290.552,216,248,216 s-60.72-7.296-60.848-7.352L176,203.872v30.696c-6.472-13.448-9.184-28.576-7.48-43.808 C172.44,155.688,200.488,126.352,235.216,120.992z M158.632,234.528c1.808,4.672,3.904,9.232,6.432,13.584l-14.112-8.472 L158.632,234.528z M136.28,230.2L112,212v-10.496c7.416,3.016,15.512,4.712,24,4.712c5.536,0,10.96-0.792,16.248-2.2 c0.216,4.864,0.736,9.688,1.672,14.424L136.28,230.2z M168.904,269.064l7.84,4.704c2.36,17.296,10.864,32.616,23.256,43.744V336 h-32.936l-6.76-54.04L168.904,269.064z M206.024,352.672l27.992,22.392l-23.592,14.16l-21.704-32.56L206.024,352.672z M216,340.152V328.4c9.656,4.816,20.496,7.6,32,7.6c11.504,0,22.344-2.776,32-7.6v11.752l-32,25.6L216,340.152z M289.976,352.664 l17.304,3.992l-21.704,32.56l-23.592-14.16L289.976,352.664z M248,320c-30.872,0-56-25.128-56-56v-37.328 c10.456,2.44,28.616,5.328,56,5.328c27.384,0,45.544-2.888,56-5.328V264C304,294.872,278.872,320,248,320z M72,91.296v28.584 c-5.088-6.808-8-15.16-8-23.88v-8c0-39.704,32.296-72,72-72c25.552,0,49.424,13.8,62.288,36.008L200.6,56h7.4c4.416,0,8,3.584,8,8 v32c0,5.016-1.008,9.904-2.88,14.608c-4.552,1.8-8.936,3.952-13.136,6.416l-0.032-25.488l-11.344,5.224 C188.44,96.832,172.456,104,136,104s-52.44-7.168-52.536-7.208L72,91.296z M88,142.216V114.96c9.512,2.392,25.2,5.04,48,5.04 s38.488-2.648,48-5.04v13.72c-16.6,14.984-28.04,35.616-31.08,58.368c-5.44,2.072-11.104,3.176-16.92,3.176 C109.528,190.216,88,168.688,88,142.216z M101.936,224.448l19.744,14.808l-22.936,13.768l-15.296-25.488L101.936,224.448z M104.936,336H64v-24H48v24H16v-49.784c0-27.496,19.68-50.728,46.792-55.24l3.696-0.616l26.768,44.616l9.84-5.904l8.592,12.888 L104.936,336z M121.056,336l7.24-57.96l-11.472-17.208L136,249.328l19.168,11.496l-11.472,17.208l7.24,57.968H121.056z M216.84,480H160v-40h-16v40h-32v-61.088c0-26.232,17.848-48.672,43.408-54.56l16.648-3.84l33.52,50.272l9.52-5.712l8.632,12.944 L216.84,480z M263.064,480h-30.12l7.336-66.016l-11.44-17.16L248,385.328l19.168,11.496l-11.44,17.16L263.064,480z M384,418.912 V480h-32v-40h-16v40h-56.84l-6.888-61.984l8.632-12.944l9.52,5.712l33.52-50.272l16.648,3.84 C366.152,370.24,384,392.68,384,418.912z M480,336h-32v-24h-16v24H296v-18.488c9.032-8.112,16-18.448,20.04-30.168L360,331.312 l72.688-72.68l-5.744-28.704l6.264,1.048c27.112,4.52,46.792,27.752,46.792,55.24V336z"/></symbol><symbol id="teamwork" viewBox="0 0 511.999 511.999"><title>teamwork</title><g> <g> <path d="M150.49,297.564c-6.718-7.17-16.208-11.283-26.032-11.283h-23.451c-9.826,0-19.315,4.112-26.032,11.283 c-6.719,7.171-10.206,16.907-9.567,26.714l1.042,15.982v0.001l2.434,37.319c0.981,15.05,9.457,28.374,22.672,35.643 c6.63,3.646,13.904,5.47,21.177,5.47c7.273,0,14.547-1.824,21.177-5.47c13.215-7.269,21.692-20.593,22.672-35.643l2.781-42.647 l0.696-10.656C160.697,314.471,157.21,304.735,150.49,297.564z M85.762,322.951c-0.277-4.261,1.177-8.325,4.097-11.439 c2.918-3.116,6.877-4.831,11.148-4.831h16.102l-2.863,7.634c-1.461,2.078-8.605,10.73-28.132,14.005L85.762,322.951z M136.226,376.252c-0.525,8.063-5.067,15.203-12.148,19.097c-7.104,3.907-15.587,3.907-22.691,0 c-7.08-3.894-11.623-11.034-12.148-19.097l-1.794-27.511c16.634-2.444,27.599-8.14,34.534-13.524 c1.233,0.856,2.591,1.667,4.069,2.43c2.885,1.491,6.98,2.964,12.404,4.458L136.226,376.252z M135.413,319.525 c-0.433-0.223-0.789-0.427-1.106-0.617l2.317-6.179c1.88,2.462,2.951,5.384,3.094,8.474 C137.273,320.403,136.004,319.832,135.413,319.525z"/> </g> </g><g> <g> <path d="M219.572,499.982l-3.882-21.438c-4.828-26.653-25.945-47.925-52.544-52.934c-4.015-0.757-8.123-1.14-12.206-1.14h-11.696 c-2.705,0-5.298,1.075-7.212,2.987l-19.299,19.299l-19.299-19.299c-1.913-1.912-4.507-2.987-7.212-2.987H74.525 c-4.084,0-8.191,0.383-12.206,1.14c-26.6,5.009-47.715,26.281-52.543,52.933L5.89,499.982c-0.539,2.975,0.27,6.035,2.207,8.355 c1.938,2.32,4.806,3.661,7.829,3.661h193.609c3.023,0,5.89-1.341,7.829-3.661C219.301,506.017,220.11,502.956,219.572,499.982z M28.141,491.602l1.707-9.422c3.332-18.39,17.898-33.068,36.246-36.523c2.774-0.522,5.611-0.787,8.432-0.787h7.471l23.523,23.523 c3.984,3.982,10.44,3.982,14.425,0l23.523-23.523h7.471c2.821,0,5.657,0.265,8.432,0.787 c18.348,3.455,32.915,18.133,36.247,36.524l1.706,9.421H28.141z"/> </g> </g><g> <g> <path d="M437.026,297.563c-6.718-7.17-16.208-11.283-26.032-11.283h-23.45c-9.826,0.001-19.315,4.114-26.033,11.284 c-6.719,7.171-10.206,16.907-9.567,26.714l1.042,15.981v0.001l2.434,37.319c0.981,15.05,9.457,28.374,22.672,35.643 c6.63,3.646,13.904,5.47,21.177,5.47s14.547-1.824,21.177-5.47c13.215-7.269,21.692-20.593,22.672-35.643l2.781-42.647 l0.696-10.656C447.232,314.47,443.745,304.734,437.026,297.563z M372.298,322.951c-0.277-4.261,1.177-8.325,4.097-11.439 c2.918-3.116,6.877-4.831,11.148-4.831h16.101l-2.863,7.634c-1.461,2.078-8.605,10.73-28.132,14.005L372.298,322.951z M422.762,376.252c-0.526,8.063-5.068,15.203-12.148,19.097c-7.104,3.907-15.587,3.907-22.691,0 c-7.08-3.894-11.623-11.034-12.148-19.097l-1.794-27.511c16.634-2.444,27.6-8.14,34.535-13.524 c1.233,0.856,2.591,1.667,4.069,2.43c2.885,1.491,6.98,2.964,12.404,4.458L422.762,376.252z M421.949,319.525 c-0.433-0.223-0.789-0.427-1.105-0.617l2.317-6.179c1.878,2.462,2.95,5.384,3.093,8.474 C423.81,320.403,422.541,319.832,421.949,319.525z"/> </g> </g><g> <g> <path d="M506.109,499.982l-3.885-21.439c-4.827-26.653-25.944-47.925-52.543-52.934c-4.015-0.757-8.123-1.14-12.206-1.14h-11.696 c-2.705,0-5.298,1.075-7.212,2.987l-19.299,19.299l-19.299-19.299c-1.913-1.912-4.507-2.987-7.212-2.987H361.06 c-4.084,0-8.191,0.384-12.206,1.14c-26.599,5.009-47.715,26.281-52.543,52.933l-3.885,21.439c-0.539,2.975,0.27,6.035,2.207,8.355 c1.938,2.32,4.806,3.662,7.829,3.662h193.609c3.023,0,5.89-1.341,7.829-3.662C505.839,506.018,506.647,502.957,506.109,499.982z M314.676,491.601l1.707-9.421c3.332-18.39,17.898-33.068,36.246-36.523c2.774-0.522,5.611-0.787,8.432-0.787h7.471l23.523,23.523 c3.984,3.982,10.44,3.982,14.425,0l23.523-23.523h7.471c2.821,0,5.657,0.265,8.432,0.787 c18.348,3.455,32.914,18.133,36.246,36.523l1.707,9.421H314.676z"/> </g> </g><g> <g> <path d="M293.758,11.283C287.04,4.112,277.551,0,267.725,0h-23.45c-9.826,0-19.315,4.112-26.032,11.283 c-6.719,7.171-10.206,16.907-9.567,26.714l1.042,15.981l2.434,37.321c0.981,15.05,9.457,28.374,22.672,35.643 c6.63,3.646,13.904,5.469,21.177,5.469c7.273,0,14.546-1.823,21.177-5.469c13.215-7.269,21.692-20.593,22.672-35.643l2.781-42.647 l0.696-10.656C303.965,28.191,300.478,18.454,293.758,11.283z M229.03,36.669c-0.277-4.261,1.177-8.324,4.096-11.439 c2.919-3.116,6.878-4.831,11.149-4.831h16.101l-2.863,7.634c-1.461,2.078-8.605,10.73-28.132,14.005L229.03,36.669z M279.494,89.971c-0.525,8.063-5.068,15.203-12.148,19.097c-7.105,3.907-15.586,3.907-22.691,0 c-7.08-3.894-11.623-11.034-12.148-19.097l-1.794-27.511c16.634-2.444,27.599-8.14,34.535-13.524 c1.234,0.856,2.591,1.667,4.07,2.43c2.886,1.491,6.981,2.964,12.403,4.458L279.494,89.971z M278.681,33.243 c-0.433-0.223-0.789-0.427-1.106-0.617l2.317-6.18c1.879,2.463,2.951,5.385,3.094,8.475 C280.541,34.121,279.273,33.549,278.681,33.243z"/> </g> </g><g> <g> <path d="M362.841,213.703l-3.884-21.439c-4.828-26.653-25.945-47.925-52.544-52.933c-4.015-0.757-8.123-1.14-12.206-1.14H282.51 c-2.705,0-5.298,1.075-7.212,2.987L256,160.475l-19.299-19.299c-1.913-1.912-4.507-2.987-7.212-2.987h-11.696 c-4.084,0-8.191,0.383-12.206,1.14c-26.6,5.009-47.715,26.281-52.543,52.933l-3.885,21.439c-0.539,2.975,0.27,6.035,2.207,8.355 c1.94,2.322,4.807,3.664,7.83,3.664h193.609c3.023,0,5.89-1.341,7.829-3.661C362.57,219.738,363.379,216.677,362.841,213.703z M171.409,205.322l1.706-9.423c3.332-18.39,17.898-33.068,36.246-36.523c2.774-0.522,5.611-0.787,8.432-0.787h7.472l23.522,23.523 c3.984,3.983,10.44,3.983,14.425,0l23.522-23.523h7.472c2.821,0,5.658,0.265,8.432,0.787 c18.348,3.456,32.915,18.133,36.247,36.524l1.706,9.422H171.409z"/> </g> </g><g> <g> <path d="M252.926,244.255c-5.632,0-10.199,4.566-10.199,10.199v3.074c0,5.633,4.567,10.199,10.199,10.199 c5.632,0,10.199-4.566,10.199-10.199v-3.074C263.125,248.821,258.558,244.255,252.926,244.255z"/> </g> </g><g> <g> <path d="M324.573,360.887l-61.448-35.478V287.24c0-5.633-4.567-10.199-10.199-10.199c-5.632,0-10.199,4.566-10.199,10.199v38.168 h0l-61.448,35.478c-4.878,2.816-6.55,9.054-3.733,13.932c1.89,3.272,5.317,5.101,8.843,5.101c1.73,0,3.484-0.441,5.089-1.368 l61.448-35.478l61.448,35.478c1.606,0.927,3.36,1.368,5.089,1.368c3.525,0,6.953-1.829,8.843-5.101 C331.123,369.94,329.452,363.703,324.573,360.887z"/> </g> </g></symbol><symbol id="remove-button" viewBox="0 0 27.965 27.965"><title>remove-button</title><path d="M13.98,0C6.259,0,0,6.261,0,13.983c0,7.721,6.259,13.982,13.98,13.982c7.725,0,13.985-6.262,13.985-13.982 C27.965,6.261,21.705,0,13.98,0z M19.992,17.769l-2.227,2.224c0,0-3.523-3.78-3.786-3.78c-0.259,0-3.783,3.78-3.783,3.78 l-2.228-2.224c0,0,3.784-3.472,3.784-3.781c0-0.314-3.784-3.787-3.784-3.787l2.228-2.229c0,0,3.553,3.782,3.783,3.782 c0.232,0,3.786-3.782,3.786-3.782l2.227,2.229c0,0-3.785,3.523-3.785,3.787C16.207,14.239,19.992,17.769,19.992,17.769z"/></symbol><symbol id="interface" viewBox="0 0 269.234 269.234"><title>interface</title><path style="fill:#010002;" d="M248.38,42.664H20.859C9.361,42.664,0,52.025,0,63.517v12.684c0,11.493,9.361,20.853,20.859,20.853 H248.38c11.498,0,20.853-9.361,20.853-20.853V63.517C269.234,52.025,259.878,42.664,248.38,42.664z M258.356,76.201 c0,5.504-4.471,9.975-9.975,9.975H20.859c-5.504,0-9.981-4.471-9.981-9.975V63.517c0-5.504,4.476-9.975,9.981-9.975H248.38 c5.504,0,9.975,4.471,9.975,9.975V76.201z"/><path style="fill:#010002;" d="M248.38,106.91H20.859C9.361,106.91,0,116.271,0,127.764v12.684 c0,11.493,9.361,20.853,20.859,20.853H248.38c11.498,0,20.853-9.361,20.853-20.853v-12.684 C269.234,116.271,259.878,106.91,248.38,106.91z M258.356,140.448c0,5.504-4.471,9.975-9.975,9.975H20.859 c-5.504,0-9.981-4.471-9.981-9.975v-12.684c0-5.504,4.476-9.975,9.981-9.975H248.38c5.504,0,9.975,4.471,9.975,9.975V140.448z"/><path style="fill:#010002;" d="M248.38,172.179H20.859C9.361,172.179,0,181.54,0,193.032v12.684 c0,11.493,9.361,20.853,20.859,20.853H248.38c11.498,0,20.853-9.361,20.853-20.853v-12.684 C269.234,181.54,259.878,172.179,248.38,172.179z M258.356,205.716c0,5.504-4.471,9.975-9.975,9.975H20.859 c-5.504,0-9.981-4.471-9.981-9.975v-12.684c0-5.504,4.476-9.975,9.981-9.975H248.38c5.504,0,9.975,4.471,9.975,9.975V205.716z"/></symbol><symbol id="internet" viewBox="0 0 59.994 59.994"><title>internet</title><g><g><path d="m51.981,33.502c-0.552,0-1,0.448-1,1v19h-22v-15c0-0.552-0.448-1-1-1h-10c-0.552,0-1,0.448-1,1v15h-8v-19c0-0.552-0.448-1-1-1-0.552,0-1,0.448-1,1v20c0,0.552 0.448,1 1,1h10c0.552,0 1-0.448 1-1v-15h8v15c0,0.552 0.448,1 1,1h24c0.552,0 1-0.448 1-1v-20c0-0.552-0.447-1-1-1zm7.723,.291l-9.723-9.723v-11.568c0-0.552-0.448-1-1-1h-6c-0.552,0-1,0.448-1,1 0,0.552 0.448,1 1,1h5v8.568l-17.25-17.25c-0.011-0.012-0.015-0.029-0.027-0.041-0.195-0.195-0.451-0.291-0.707-0.289-0.256-0.002-0.512,0.094-0.707,0.289-0.012,0.012-0.016,0.028-0.027,0.041l-28.973,28.973c-0.387,0.387-0.387,1.014 8.32667e-16,1.401 0.387,0.387 1.014,0.387 1.401,0l28.306-28.306 18.186,18.186c0.064,0.089 0.138,0.164 0.227,0.227l9.893,9.893c0.387,0.387 1.014,0.387 1.401,0 0.387-0.387 0.387-1.014 0-1.401z"/></g></g><g><g><path d="m41.981,37.502h-8c-0.552,0-1,0.448-1,1v8c0,0.552 0.448,1 1,1h8c0.552,0 1-0.448 1-1v-8c0-0.552-0.447-1-1-1zm-1,8h-6v-6h6v6z"/></g></g></symbol><symbol id="heart" viewBox="0 0 471.701 471.701"><title>heart</title><path d="M433.601,67.001c-24.7-24.7-57.4-38.2-92.3-38.2s-67.7,13.6-92.4,38.3l-12.9,12.9l-13.1-13.1 c-24.7-24.7-57.6-38.4-92.5-38.4c-34.8,0-67.6,13.6-92.2,38.2c-24.7,24.7-38.3,57.5-38.2,92.4c0,34.9,13.7,67.6,38.4,92.3 l187.8,187.8c2.6,2.6,6.1,4,9.5,4c3.4,0,6.9-1.3,9.5-3.9l188.2-187.5c24.7-24.7,38.3-57.5,38.3-92.4 C471.801,124.501,458.301,91.701,433.601,67.001z M414.401,232.701l-178.7,178l-178.3-178.3c-19.6-19.6-30.4-45.6-30.4-73.3 s10.7-53.7,30.3-73.2c19.5-19.5,45.5-30.3,73.1-30.3c27.7,0,53.8,10.8,73.4,30.4l22.6,22.6c5.3,5.3,13.8,5.3,19.1,0l22.4-22.4 c19.6-19.6,45.7-30.4,73.3-30.4c27.6,0,53.6,10.8,73.2,30.3c19.6,19.6,30.3,45.6,30.3,73.3 C444.801,187.101,434.001,213.101,414.401,232.701z"/></symbol><symbol id="mail" viewBox="0 0 31.012 31.012"><title>mail</title><path d="M28.512,26.529H2.5c-1.378,0-2.5-1.121-2.5-2.5V6.982c0-1.379,1.122-2.5,2.5-2.5h26.012c1.378,0,2.5,1.121,2.5,2.5v17.047 C31.012,25.408,29.89,26.529,28.512,26.529z M2.5,5.482c-0.827,0-1.5,0.673-1.5,1.5v17.047c0,0.827,0.673,1.5,1.5,1.5h26.012 c0.827,0,1.5-0.673,1.5-1.5V6.982c0-0.827-0.673-1.5-1.5-1.5H2.5z"/><path d="M15.506,18.018c-0.665,0-1.33-0.221-1.836-0.662L0.891,6.219c-0.208-0.182-0.23-0.497-0.048-0.705 c0.182-0.21,0.498-0.23,0.706-0.049l12.778,11.137c0.64,0.557,1.72,0.556,2.358,0L29.46,5.466c0.207-0.183,0.522-0.162,0.706,0.049 c0.182,0.208,0.16,0.523-0.048,0.705L17.342,17.355C16.836,17.797,16.171,18.018,15.506,18.018z"/></symbol><symbol id="dollar-symbol" viewBox="0 0 484.184 484.184"><title>dollar-symbol</title><path d="M309.43,219.944c-19-10.5-39.2-18.5-59.2-26.8c-11.6-4.8-22.7-10.4-32.5-18.2c-19.3-15.4-15.6-40.4,7-50.3 c6.4-2.8,13.1-3.7,19.9-4.1c26.2-1.4,51.1,3.4,74.8,14.8c11.8,5.7,15.7,3.9,19.7-8.4c4.2-13,7.7-26.2,11.6-39.3 c2.6-8.8-0.6-14.6-8.9-18.3c-15.2-6.7-30.8-11.5-47.2-14.1c-21.4-3.3-21.4-3.4-21.5-24.9c-0.1-30.3-0.1-30.3-30.5-30.3 c-4.4,0-8.8-0.1-13.2,0c-14.2,0.4-16.6,2.9-17,17.2c-0.2,6.4,0,12.8-0.1,19.3c-0.1,19-0.2,18.7-18.4,25.3c-44,16-71.2,46-74.1,94 c-2.6,42.5,19.6,71.2,54.5,92.1c21.5,12.9,45.3,20.5,68.1,30.6c8.9,3.9,17.4,8.4,24.8,14.6c21.9,18.1,17.9,48.2-8.1,59.6 c-13.9,6.1-28.6,7.6-43.7,5.7c-23.3-2.9-45.6-9-66.6-19.9c-12.3-6.4-15.9-4.7-20.1,8.6c-3.6,11.5-6.8,23.1-10,34.7 c-4.3,15.6-2.7,19.3,12.2,26.6c19,9.2,39.3,13.9,60,17.2c16.2,2.6,16.7,3.3,16.9,20.1c0.1,7.6,0.1,15.3,0.2,22.9 c0.1,9.6,4.7,15.2,14.6,15.4c11.2,0.2,22.5,0.2,33.7-0.1c9.2-0.2,13.9-5.2,13.9-14.5c0-10.4,0.5-20.9,0.1-31.3 c-0.5-10.6,4.1-16,14.3-18.8c23.5-6.4,43.5-19,58.9-37.8C386.33,329.544,370.03,253.444,309.43,219.944z"/></symbol><symbol id="gift-box" viewBox="0 0 438.526 438.526"><title>gift-box</title><path d="M435.969,157.878c-1.708-1.712-3.897-2.568-6.57-2.568H303.778c17.7,0,32.784-6.23,45.255-18.699 c12.464-12.468,18.699-27.552,18.699-45.254s-6.235-32.786-18.699-45.254c-12.471-12.465-27.555-18.699-45.255-18.699 c-20.365,0-36.356,7.327-47.965,21.982l-36.547,47.108l-36.54-47.108c-11.613-14.655-27.6-21.982-47.967-21.982 c-17.703,0-32.789,6.23-45.253,18.699c-12.465,12.468-18.7,27.552-18.7,45.254s6.231,32.79,18.7,45.254 c12.467,12.465,27.55,18.699,45.253,18.699H9.135c-2.667,0-4.854,0.856-6.567,2.568C0.857,159.593,0,161.783,0,164.446v91.367 c0,2.662,0.854,4.853,2.568,6.563c1.712,1.711,3.903,2.566,6.567,2.566h27.41v118.776c0,7.618,2.665,14.086,7.995,19.41 c5.326,5.332,11.798,7.994,19.414,7.994h310.629c7.618,0,14.086-2.662,19.417-7.994c5.325-5.328,7.995-11.799,7.995-19.41V264.942 h27.397c2.669,0,4.859-0.855,6.57-2.566s2.563-3.901,2.563-6.563v-91.367C438.529,161.783,437.68,159.593,435.969,157.878z M284.081,72.798c4.948-5.898,11.512-8.848,19.697-8.848c7.618,0,14.089,2.662,19.418,7.992c5.324,5.327,7.987,11.8,7.987,19.414 s-2.67,14.087-7.987,19.414c-5.332,5.33-11.8,7.992-19.418,7.992h-55.391L284.081,72.798z M134.756,118.763 c-7.614,0-14.082-2.663-19.42-7.992c-5.327-5.327-7.993-11.8-7.993-19.414s2.663-14.084,7.993-19.414 c5.33-5.33,11.803-7.992,19.417-7.992c8.188,0,14.753,2.946,19.702,8.848l35.975,45.965H134.756z M264.951,210.128v133.62v15.985 c0,4.76-1.719,8.422-5.141,10.995c-3.429,2.57-7.809,3.856-13.131,3.856H191.86c-5.33,0-9.707-1.286-13.134-3.856 c-3.427-2.573-5.142-6.235-5.142-10.995v-15.985v-133.62V155.31h91.367V210.128z"/></symbol><symbol id="double-arrow-diagonal-in-a-circle" viewBox="0 0 44.236 44.236"><title>double-arrow-diagonal-in-a-circle</title><path d="M22.118,44.236C9.922,44.236,0,34.314,0,22.119C0,9.923,9.922,0,22.118,0s22.118,9.922,22.118,22.119 S34.314,44.236,22.118,44.236z M22.118,1.5C10.749,1.5,1.5,10.75,1.5,22.119s9.249,20.619,20.618,20.619 c11.368,0,20.618-9.25,20.618-20.619S33.486,1.5,22.118,1.5z"/><g> <g> <path d="M14.042,31.346c-0.192,0-0.384-0.072-0.53-0.22c-0.293-0.293-0.293-0.769,0-1.062l10.163-10.163 c0.293-0.293,0.769-0.293,1.062,0s0.293,0.768,0,1.061L14.572,31.126C14.426,31.271,14.234,31.346,14.042,31.346z"/> </g> <path d="M18.753,31.352L18.753,31.352l-4.712-0.006c-0.413,0-0.749-0.336-0.749-0.75l-0.004-4.709c0-0.414,0.335-0.75,0.749-0.75 c0.001,0,0.001,0,0.001,0c0.414,0,0.75,0.336,0.75,0.75l0.003,3.961l3.963,0.004c0.414,0,0.749,0.336,0.749,0.752 C19.503,31.016,19.167,31.352,18.753,31.352z"/> </g><g> <path d="M24.205,21.183c-0.191,0-0.385-0.073-0.53-0.22c-0.293-0.293-0.293-0.768,0-1.061l6.224-6.222 c0.293-0.293,0.768-0.293,1.061,0s0.293,0.768,0,1.061l-6.223,6.222C24.589,21.11,24.396,21.183,24.205,21.183z"/> </g><path d="M30.432,19.67c-0.414,0-0.75-0.335-0.75-0.75l-0.002-3.961l-3.964-0.004c-0.414,0-0.749-0.336-0.749-0.751 c0-0.414,0.336-0.749,0.75-0.749h0.001l4.712,0.005c0.412,0,0.748,0.336,0.748,0.75l0.004,4.709 C31.182,19.334,30.848,19.67,30.432,19.67L30.432,19.67z"/></symbol><symbol id="layers" viewBox="0 0 300 300"><title>layers</title><path d="M149.996,0C67.157,0,0.001,67.161,0.001,149.997S67.157,300,149.996,300s150.003-67.163,150.003-150.003 S232.838,0,149.996,0z M234.752,201.789l-81.296,40.291c-1.089,0.539-2.272,0.812-3.455,0.812c-1.183,0-2.368-0.27-3.455-0.809 L65.25,201.792c-3.851-1.909-5.426-6.577-3.517-10.429c1.906-3.846,6.58-5.426,10.426-3.517l77.844,38.58l77.841-38.577 c3.844-1.911,8.517-0.335,10.426,3.514C240.178,195.211,238.603,199.88,234.752,201.789z M234.752,172.18l-81.296,40.291 c-1.089,0.539-2.272,0.812-3.455,0.812c-1.183,0-2.368-0.27-3.455-0.809L65.25,172.183c-3.851-1.909-5.426-6.577-3.517-10.429 c1.906-3.849,6.58-5.421,10.426-3.517l77.844,38.58l77.841-38.577c3.844-1.917,8.517-0.335,10.426,3.514 C240.178,165.603,238.603,170.271,234.752,172.18z M234.752,142.572l-81.296,40.291c-1.089,0.539-2.272,0.812-3.455,0.812 c-1.183,0-2.368-0.27-3.455-0.809L65.25,142.572c-3.851-1.909-5.426-6.577-3.517-10.426c1.906-3.849,6.58-5.426,10.426-3.517 l77.844,38.58l77.841-38.58c3.844-1.906,8.517-0.335,10.426,3.517C240.178,135.995,238.603,140.663,234.752,142.572z M234.752,111.506l-81.296,40.289c-1.089,0.539-2.272,0.809-3.455,0.809c-1.183,0-2.368-0.27-3.455-0.809L65.25,111.506 c-2.648-1.312-4.326-4.015-4.326-6.972c0-2.957,1.675-5.659,4.326-6.972l81.299-40.294c2.176-1.079,4.733-1.079,6.909,0 l81.296,40.294c2.648,1.312,4.326,4.015,4.326,6.972C239.08,107.491,237.403,110.191,234.752,111.506z"/></symbol><symbol id="remove" viewBox="0 0 426.667 426.667"><title>remove</title><g> <g> <rect x="106.667" y="192" width="213.333" height="42.667"/> </g> </g><g> <g> <path d="M213.333,0C95.513,0,0,95.513,0,213.333s95.513,213.333,213.333,213.333s213.333-95.513,213.333-213.333 S331.154,0,213.333,0z M213.333,388.053c-96.495,0-174.72-78.225-174.72-174.72s78.225-174.72,174.72-174.72 c96.446,0.117,174.602,78.273,174.72,174.72C388.053,309.829,309.829,388.053,213.333,388.053z"/> </g> </g></symbol><symbol id="signs" viewBox="0 0 304.223 304.223"><title>signs</title><path style="fill:#010002;" d="M152.112,0C68.241,0,0.008,68.244,0.008,152.114c0,83.865,68.233,152.109,152.103,152.109 c83.865,0,152.103-68.244,152.103-152.109C304.215,68.244,235.977,0,152.112,0z M152.112,275.989 c-68.32,0-123.891-55.565-123.891-123.875c0-68.326,55.571-123.891,123.891-123.891s123.891,55.565,123.891,123.891 C276.003,220.424,220.426,275.989,152.112,275.989z"/><path style="fill:#010002;" d="M221.922,139.186h-56.887V82.298c0-7.141-5.782-12.929-12.923-12.929 c-7.141,0-12.929,5.782-12.929,12.929v56.887H82.296c-7.141,0-12.923,5.782-12.923,12.929c0,7.141,5.782,12.923,12.923,12.923 h56.882v56.893c0,7.142,5.787,12.923,12.929,12.923c7.141,0,12.929-5.782,12.929-12.923v-56.893h56.882 c7.142,0,12.929-5.782,12.929-12.923C234.851,144.967,229.063,139.186,221.922,139.186z"/></symbol><symbol id="history" viewBox="0 0 280 280"><title>history</title><path d="M140,60.082c-8.284,0-15,6.716-15,15v49.982H75.019c-8.284,0-15,6.716-15,15c0,8.284,6.716,15,15,15H140 c8.284,0,15-6.716,15-15V75.082C155,66.798,148.284,60.082,140,60.082z"/><path d="M140,0C62.804,0,0,62.804,0,140s62.804,140,140,140s140-62.804,140-140S217.196,0,140,0z M140,250 c-60.654,0-110-49.346-110-110S79.346,30,140,30s110,49.346,110,110S200.654,250,140,250z"/></symbol><symbol id="share" viewBox="0 0 473.932 473.932"><title>share</title><path style="fill:#010002;" d="M385.513,301.214c-27.438,0-51.64,13.072-67.452,33.09l-146.66-75.002 c1.92-7.161,3.3-14.56,3.3-22.347c0-8.477-1.639-16.458-3.926-24.224l146.013-74.656c15.725,20.924,40.553,34.6,68.746,34.6 c47.758,0,86.391-38.633,86.391-86.348C471.926,38.655,433.292,0,385.535,0c-47.65,0-86.326,38.655-86.326,86.326 c0,7.809,1.381,15.229,3.322,22.412L155.892,183.74c-15.833-20.039-40.079-33.154-67.56-33.154 c-47.715,0-86.326,38.676-86.326,86.369s38.612,86.348,86.326,86.348c28.236,0,53.043-13.719,68.832-34.664l145.948,74.656 c-2.287,7.744-3.947,15.79-3.947,24.289c0,47.693,38.676,86.348,86.326,86.348c47.758,0,86.391-38.655,86.391-86.348 C471.904,339.848,433.271,301.214,385.513,301.214z"/></symbol><symbol id="black-1" viewBox="0 0 542.183 542.183"><title>black-1</title><path d="M432.544,310.636c0-9.897-3.521-18.559-10.564-25.984L217.844,80.8c-7.232-7.238-16.939-13.374-29.121-18.416 c-12.181-5.043-23.319-7.565-33.407-7.565H36.545c-9.896,0-18.464,3.619-25.694,10.848C3.616,72.9,0,81.466,0,91.365v118.771 c0,10.088,2.519,21.219,7.564,33.404c5.046,12.185,11.187,21.792,18.417,28.837L230.12,476.799 c7.043,7.043,15.608,10.564,25.694,10.564c9.898,0,18.562-3.521,25.984-10.564l140.186-140.47 C429.023,329.284,432.544,320.725,432.544,310.636z M117.204,172.02c-7.139,7.138-15.752,10.709-25.841,10.709 c-10.085,0-18.698-3.571-25.837-10.709c-7.139-7.139-10.705-15.749-10.705-25.837c0-10.089,3.566-18.702,10.705-25.837 c7.139-7.139,15.752-10.71,25.837-10.71c10.089,0,18.702,3.571,25.841,10.71c7.135,7.135,10.707,15.749,10.707,25.837 C127.91,156.271,124.339,164.881,117.204,172.02z"/><path d="M531.612,284.655L327.473,80.804c-7.23-7.238-16.939-13.374-29.122-18.417c-12.177-5.042-23.313-7.564-33.402-7.564 h-63.953c10.088,0,21.222,2.522,33.402,7.564c12.185,5.046,21.892,11.182,29.125,18.417l204.137,203.851 c7.046,7.423,10.571,16.084,10.571,25.981c0,10.089-3.525,18.647-10.571,25.693L333.469,470.519 c5.718,5.9,10.759,10.182,15.133,12.847c4.38,2.666,9.996,3.998,16.844,3.998c9.903,0,18.565-3.521,25.98-10.564l140.186-140.47 c7.046-7.046,10.571-15.604,10.571-25.693C542.179,300.739,538.658,292.078,531.612,284.655z"/></symbol><symbol id="menu" viewBox="0 0 491.858 491.858"><title>menu</title><path d="M233.632,217.239c0,9.055-7.339,16.395-16.395,16.395H16.395C7.339,233.635,0,226.294,0,217.239V16.396 C0,7.341,7.339,0.001,16.395,0.001h200.842c9.056,0,16.395,7.34,16.395,16.395V217.239z"/><path d="M491.858,217.239c0,9.055-7.339,16.395-16.395,16.395H274.62c-9.056,0-16.395-7.34-16.395-16.395V16.396 c0-9.055,7.339-16.395,16.395-16.395h200.842c9.056,0,16.395,7.34,16.395,16.395v200.843H491.858z"/><path d="M233.632,475.462c0,9.055-7.339,16.395-16.395,16.395H16.395C7.339,491.858,0,484.517,0,475.462V274.619 c0-9.055,7.339-16.395,16.395-16.395h200.842c9.056,0,16.395,7.34,16.395,16.395V475.462z"/><path d="M491.858,475.462c0,9.055-7.339,16.395-16.395,16.395H274.62c-9.056,0-16.395-7.34-16.395-16.395V274.619 c0-9.055,7.339-16.395,16.395-16.395h200.842c9.056,0,16.395,7.34,16.395,16.395v200.843H491.858z"/></symbol><symbol id="worlwide" viewBox="0 0 511.999 511.999"><title>worlwide</title><path d="M436.921,75.079C389.413,27.571,326.51,1.066,259.464,0.18C258.296,0.074,257.137,0,255.999,0s-2.297,0.074-3.465,0.18 C185.488,1.065,122.585,27.57,75.077,75.078C26.752,123.405,0.138,187.657,0.138,255.999s26.614,132.595,74.94,180.921 c47.508,47.508,110.41,74.013,177.457,74.898c1.168,0.107,2.327,0.18,3.464,0.18c1.138,0,2.297-0.074,3.465-0.18 c67.047-0.885,129.95-27.39,177.457-74.898c48.325-48.325,74.939-112.577,74.939-180.921 C511.861,187.657,485.247,123.405,436.921,75.079z M96.586,96.587c27.181-27.181,60.086-46.552,95.992-57.018 c-8.093,9.317-15.96,20.033-23.282,31.908c-9.339,15.146-17.425,31.562-24.196,48.919H75.865 C82.165,112.063,89.071,104.102,96.586,96.587z M56.486,150.813h78.373c-8.15,28.522-12.97,58.908-14.161,89.978H31.071 C33.176,208.987,41.865,178.465,56.486,150.813z M56.487,361.186c-14.623-27.652-23.312-58.174-25.417-89.978h89.627 c1.191,31.071,6.011,61.457,14.161,89.978H56.487z M96.587,415.412c-7.517-7.515-14.423-15.475-20.722-23.809h69.236 c6.771,17.357,14.856,33.773,24.196,48.919c7.322,11.875,15.189,22.591,23.282,31.908 C156.674,461.964,123.769,442.593,96.587,415.412z M240.79,475.322c-12.671-8.29-29.685-24.946-45.605-50.764 c-6.385-10.354-12.124-21.382-17.197-32.954h62.801V475.322z M240.79,361.186h-74.195c-8.888-28.182-14.163-58.651-15.459-89.978 h89.654V361.186z M240.79,240.791h-89.654c1.295-31.327,6.57-61.797,15.459-89.978h74.195V240.791z M240.79,120.395h-62.801 c5.073-11.572,10.812-22.6,17.197-32.954c15.919-25.818,32.934-42.475,45.605-50.764V120.395z M455.512,150.813 c14.623,27.653,23.311,58.174,25.416,89.978H391.3c-1.191-31.071-6.011-61.457-14.161-89.978H455.512z M415.413,96.587 c7.515,7.515,14.421,15.476,20.721,23.809h-69.235c-6.771-17.357-14.856-33.773-24.196-48.919 c-7.322-11.875-15.188-22.591-23.282-31.908C355.326,50.035,388.231,69.406,415.413,96.587z M271.208,36.677 c12.671,8.29,29.685,24.946,45.605,50.764c6.385,10.354,12.124,21.382,17.197,32.954h-62.801V36.677z M271.208,150.813h74.195 c8.889,28.182,14.164,58.653,15.459,89.978h-89.654V150.813z M360.861,271.208c-1.295,31.327-6.57,61.797-15.459,89.978h-74.195 v-89.978H360.861z M271.208,475.322v-83.718h62.801c-5.073,11.572-10.812,22.6-17.197,32.954 C300.893,450.377,283.879,467.032,271.208,475.322z M415.413,415.413c-27.182,27.181-60.086,46.551-95.992,57.018 c8.093-9.317,15.96-20.033,23.282-31.908c9.339-15.146,17.425-31.562,24.196-48.919h69.235 C429.835,399.937,422.928,407.898,415.413,415.413z M455.512,361.186h-78.373c8.15-28.521,12.971-58.907,14.161-89.978h89.627 C478.822,303.012,470.133,333.534,455.512,361.186z"/></symbol><symbol id="sign-in" viewBox="0 0 438.542 438.542"><title>sign-in</title><path d="M414.41,60.676c-16.084-16.083-35.446-24.125-58.102-24.125h-91.357c-2.478,0-4.429,0.614-5.853,1.855 c-1.431,1.237-2.382,3.093-2.854,5.568c-0.479,2.474-0.76,4.709-0.853,6.707c-0.096,1.997-0.051,4.521,0.144,7.565 c0.186,3.046,0.281,4.949,0.281,5.713c0.571,1.524,0.767,2.81,0.571,3.855c-0.191,1.043,0.476,1.903,1.998,2.568 c1.52,0.666,2.279,1.191,2.279,1.569c0,0.378,1.096,0.662,3.285,0.855c2.19,0.192,3.289,0.284,3.289,0.284h3.713h3.142h82.228 c12.56,0,23.312,4.471,32.258,13.422c8.952,8.945,13.422,19.696,13.422,32.261V319.77c0,12.563-4.47,23.312-13.422,32.258 c-8.945,8.948-19.698,13.421-32.258,13.421h-91.357c-2.478,0-4.436,0.62-5.853,1.855c-1.43,1.242-2.382,3.094-2.857,5.564 c-0.476,2.478-0.763,4.716-0.855,6.714c-0.092,1.995-0.051,4.518,0.144,7.563c0.195,3.046,0.288,4.948,0.288,5.708 c0,2.478,0.896,4.613,2.707,6.427c1.81,1.807,3.949,2.71,6.427,2.71h91.357c22.648,0,42.018-8.042,58.095-24.133 c16.084-16.077,24.126-35.446,24.126-58.095V118.769C438.533,96.118,430.491,76.754,414.41,60.676z"/><path d="M338.047,219.27c0-4.948-1.813-9.233-5.427-12.85L177.302,51.101c-3.616-3.612-7.895-5.424-12.847-5.424 c-4.952,0-9.233,1.812-12.85,5.424c-3.615,3.617-5.424,7.904-5.424,12.85v82.226H18.274c-4.952,0-9.235,1.812-12.851,5.424 C1.807,155.219,0,159.503,0,164.452v109.635c0,4.949,1.807,9.233,5.424,12.848c3.619,3.61,7.902,5.427,12.851,5.427h127.906 v82.225c0,4.945,1.809,9.233,5.424,12.847c3.621,3.617,7.902,5.428,12.85,5.428c4.949,0,9.231-1.811,12.847-5.428l155.318-155.312 C336.234,228.501,338.047,224.216,338.047,219.27z"/></symbol><symbol id="sent-mail" viewBox="0 0 334.5 334.5"><title>sent-mail</title><path d="M332.797,13.699c-1.489-1.306-3.608-1.609-5.404-0.776L2.893,163.695c-1.747,0.812-2.872,2.555-2.893,4.481 s1.067,3.693,2.797,4.542l91.833,45.068c1.684,0.827,3.692,0.64,5.196-0.484l89.287-66.734l-70.094,72.1 c-1,1.029-1.51,2.438-1.4,3.868l6.979,90.889c0.155,2.014,1.505,3.736,3.424,4.367c0.513,0.168,1.04,0.25,1.561,0.25 c1.429,0,2.819-0.613,3.786-1.733l48.742-56.482l60.255,28.79c1.308,0.625,2.822,0.651,4.151,0.073 c1.329-0.579,2.341-1.705,2.775-3.087L334.27,18.956C334.864,17.066,334.285,15.005,332.797,13.699z"/></symbol><symbol id="cell-phone" viewBox="0 0 27.442 27.442"><title>cell-phone</title><path d="M19.494,0H7.948C6.843,0,5.951,0.896,5.951,1.999v23.446c0,1.102,0.892,1.997,1.997,1.997h11.546 c1.103,0,1.997-0.895,1.997-1.997V1.999C21.491,0.896,20.597,0,19.494,0z M10.872,1.214h5.7c0.144,0,0.261,0.215,0.261,0.481 s-0.117,0.482-0.261,0.482h-5.7c-0.145,0-0.26-0.216-0.26-0.482C10.612,1.429,10.727,1.214,10.872,1.214z M13.722,25.469 c-0.703,0-1.275-0.572-1.275-1.276s0.572-1.274,1.275-1.274c0.701,0,1.273,0.57,1.273,1.274S14.423,25.469,13.722,25.469z M19.995,21.1H7.448V3.373h12.547V21.1z"/></symbol><symbol id="facebook-placeholder-for-locate-places-on-maps" viewBox="0 0 430.114 430.114"><title>facebook-placeholder-for-locate-places-on-maps</title><path id="Facebook_Places" d="M356.208,107.051c-1.531-5.738-4.64-11.852-6.94-17.205C321.746,23.704,261.611,0,213.055,0 C148.054,0,76.463,43.586,66.905,133.427v18.355c0,0.766,0.264,7.647,0.639,11.089c5.358,42.816,39.143,88.32,64.375,131.136 c27.146,45.873,55.314,90.999,83.221,136.106c17.208-29.436,34.354-59.259,51.17-87.933c4.583-8.415,9.903-16.825,14.491-24.857 c3.058-5.348,8.9-10.696,11.569-15.672c27.145-49.699,70.838-99.782,70.838-149.104v-20.262 C363.209,126.938,356.581,108.204,356.208,107.051z M214.245,199.193c-19.107,0-40.021-9.554-50.344-35.939 c-1.538-4.2-1.414-12.617-1.414-13.388v-11.852c0-33.636,28.56-48.932,53.406-48.932c30.588,0,54.245,24.472,54.245,55.06 C270.138,174.729,244.833,199.193,214.245,199.193z"/></symbol><symbol id="email-filled-closed-envelope" viewBox="0 0 612 612"><title>email-filled-closed-envelope</title><path d="M306.768,346.814h0.131c4.615,0,9.176-1.339,12.866-3.777l1.001-0.643c0.218-0.142,0.446-0.271,0.675-0.424l11.658-9.645 l278.259-229.624c-0.576-0.795-1.557-1.339-2.602-1.339H3.233c-0.751,0-1.448,0.272-2.003,0.729l291.125,239.954 C296.024,345.083,301.259,346.814,306.768,346.814z M0,133.899v340.37l208.55-168.471L0,133.899z M403.668,306.941L612,474.356 V135.031L403.668,306.941z M337.431,361.585c-8.305,6.814-19.168,10.57-30.576,10.57c-11.451,0-22.304-3.734-30.587-10.516 l-47.765-39.394L0,506.806v0.587c0,1.753,1.502,3.244,3.276,3.244h605.491c1.741,0,3.232-1.491,3.232-3.255v-0.544L383.693,323.4 L337.431,361.585z"/></symbol><symbol id="zoom-in" viewBox="0 0 299.998 299.998"><title>zoom-in</title><path d="M139.414,96.193c-22.673,0-41.056,18.389-41.056,41.062c0,22.678,18.383,41.062,41.056,41.062 c22.678,0,41.059-18.383,41.059-41.062C180.474,114.582,162.094,96.193,139.414,96.193z M159.255,146.971h-12.06v12.06 c0,4.298-3.483,7.781-7.781,7.781c-4.298,0-7.781-3.483-7.781-7.781v-12.06h-12.06c-4.298,0-7.781-3.483-7.781-7.781 c0-4.298,3.483-7.781,7.781-7.781h12.06v-12.063c0-4.298,3.483-7.781,7.781-7.781c4.298,0,7.781,3.483,7.781,7.781v12.063h12.06 c4.298,0,7.781,3.483,7.781,7.781C167.036,143.488,163.555,146.971,159.255,146.971z"/><path d="M149.997,0C67.157,0,0.001,67.158,0.001,149.995s67.156,150.003,149.995,150.003s150-67.163,150-150.003 S232.836,0,149.997,0z M225.438,221.254c-2.371,2.376-5.48,3.561-8.59,3.561s-6.217-1.185-8.593-3.561l-34.145-34.147 c-9.837,6.863-21.794,10.896-34.697,10.896c-33.548,0-60.742-27.196-60.742-60.744c0-33.548,27.194-60.742,60.742-60.742 c33.548,0,60.744,27.194,60.744,60.739c0,11.855-3.408,22.909-9.28,32.256l34.56,34.562 C230.185,208.817,230.185,216.512,225.438,221.254z"/></symbol><symbol id="technology" viewBox="0 0 512 512"><title>technology</title><circle cx="277.333" cy="277.333" r="85.333"/><path d="M469.333,106.667H391.01c-8.552,0-16.583-3.333-22.635-9.375l-17.667-17.667C340.635,69.552,327.24,64,312.99,64h-71.313 c-14.25,0-27.646,5.552-37.719,15.625l-17.667,17.667c-6.052,6.042-14.083,9.375-22.635,9.375H128V96 c0-5.896-4.771-10.667-10.667-10.667H74.667C68.771,85.333,64,90.104,64,96v10.667H42.667C19.135,106.667,0,125.802,0,149.333 v256C0,428.865,19.135,448,42.667,448h426.667C492.865,448,512,428.865,512,405.333v-256 C512,125.802,492.865,106.667,469.333,106.667z M128,202.667c0,5.896-4.771,10.667-10.667,10.667H74.667 c-5.896,0-10.667-4.771-10.667-10.667v-21.333c0-5.896,4.771-10.667,10.667-10.667h42.667c5.896,0,10.667,4.771,10.667,10.667 V202.667z M277.333,384c-58.813,0-106.667-47.854-106.667-106.667s47.854-106.667,106.667-106.667S384,218.521,384,277.333 S336.146,384,277.333,384z"/></symbol><symbol id="music-note-black-symbol" viewBox="0 0 475.071 475.071"><title>music-note-black-symbol</title><path d="M448.808,7.994C443.483,2.664,437.009,0,429.397,0c-3.046,0-5.715,0.383-7.994,1.143L183.861,74.232 c-5.708,1.903-10.373,5.282-13.99,10.135c-3.615,4.856-5.424,10.232-5.424,16.134v276.087 c-16.562-7.426-34.833-11.139-54.818-11.139c-8.564,0-17.749,0.999-27.55,2.994c-9.806,1.995-19.657,5.041-29.552,9.134 c-9.9,4.093-18.083,9.853-24.556,17.271c-6.471,7.423-9.705,15.899-9.705,25.413c0,9.521,3.234,17.987,9.705,25.413 c6.473,7.419,14.655,13.179,24.556,17.271c9.899,4.093,19.75,7.136,29.552,9.134c9.801,1.995,18.986,2.991,27.55,2.991 s17.746-0.996,27.55-2.991c9.806-1.998,19.653-5.041,29.552-9.134c9.896-4.093,18.079-9.853,24.55-17.271 c6.477-7.426,9.71-15.893,9.71-25.413v-202.42l219.271-67.665v153.317c-16.566-7.422-34.834-11.139-54.819-11.139 c-8.565,0-17.751,0.996-27.552,2.994c-9.805,1.995-19.65,5.041-29.551,9.134c-9.896,4.093-18.082,9.853-24.558,17.278 c-6.468,7.416-9.712,15.89-9.712,25.406c0,9.521,3.244,17.987,9.712,25.413c6.476,7.423,14.661,13.183,24.558,17.271 c9.897,4.093,19.746,7.139,29.551,9.138c9.801,1.998,18.986,2.99,27.552,2.99c8.562,0,17.747-0.992,27.548-2.99 c9.802-1.999,19.65-5.045,29.554-9.138c9.897-4.089,18.076-9.849,24.551-17.271c6.479-7.426,9.709-15.893,9.709-25.413V27.401 C456.802,19.789,454.146,13.321,448.808,7.994z"/></symbol><symbol id="link" viewBox="0 0 300 300"><title>link</title><path d="M149.996,0C67.157,0,0.001,67.161,0.001,149.997S67.157,300,149.996,300s150.003-67.163,150.003-150.003 S232.835,0,149.996,0z M225.363,123.302l-36.686,36.686c-3.979,3.979-9.269,6.17-14.895,6.17c-5.625,0-10.916-2.192-14.895-6.168 l-1.437-1.437l-3.906,3.906l1.434,1.434c8.214,8.214,8.214,21.579,0,29.793l-36.681,36.686c-3.979,3.979-9.269,6.17-14.898,6.17 c-5.628,0-10.919-2.192-14.9-6.173L74.634,216.5c-8.214-8.209-8.214-21.573-0.003-29.79l36.689-36.684 c3.979-3.979,9.269-6.17,14.898-6.17s10.916,2.192,14.898,6.17l1.432,1.432l3.906-3.906l-1.432-1.432 c-8.214-8.211-8.214-21.576-0.005-29.79l36.689-36.686c3.981-3.981,9.272-6.173,14.898-6.173s10.916,2.192,14.898,6.17 l13.868,13.873C233.577,101.723,233.577,115.09,225.363,123.302z"/><path d="M142.539,173.459l-7.093,7.093l-11.002-10.999l7.093-7.093l-1.432-1.432c-1.04-1.037-2.422-1.611-3.89-1.611 c-1.471,0-2.853,0.573-3.893,1.611l-36.686,36.681c-2.145,2.147-2.145,5.638,0,7.783l13.87,13.873 c2.083,2.083,5.708,2.08,7.786,0.003l36.681-36.686c2.148-2.147,2.148-5.641,0-7.789L142.539,173.459z"/><path d="M200.493,90.643c-1.04-1.04-2.425-1.613-3.896-1.613c-1.471,0-2.856,0.573-3.896,1.616l-36.686,36.684 c-2.142,2.147-2.142,5.638,0.003,7.786l1.434,1.432l10.88-10.883l11.002,11.002l-10.88,10.883l1.434,1.434 c2.083,2.077,5.703,2.08,7.786-0.003l36.684-36.681c2.145-2.147,2.145-5.638,0-7.786L200.493,90.643z"/></symbol><symbol id="cancel" viewBox="0 0 492 492"><title>cancel</title><path d="M300.188,246L484.14,62.04c5.06-5.064,7.852-11.82,7.86-19.024c0-7.208-2.792-13.972-7.86-19.028L468.02,7.872 c-5.068-5.076-11.824-7.856-19.036-7.856c-7.2,0-13.956,2.78-19.024,7.856L246.008,191.82L62.048,7.872 c-5.06-5.076-11.82-7.856-19.028-7.856c-7.2,0-13.96,2.78-19.02,7.856L7.872,23.988c-10.496,10.496-10.496,27.568,0,38.052 L191.828,246L7.872,429.952c-5.064,5.072-7.852,11.828-7.852,19.032c0,7.204,2.788,13.96,7.852,19.028l16.124,16.116 c5.06,5.072,11.824,7.856,19.02,7.856c7.208,0,13.968-2.784,19.028-7.856l183.96-183.952l183.952,183.952 c5.068,5.072,11.824,7.856,19.024,7.856h0.008c7.204,0,13.96-2.784,19.028-7.856l16.12-16.116 c5.06-5.064,7.852-11.824,7.852-19.028c0-7.204-2.792-13.96-7.852-19.028L300.188,246z"/></symbol><symbol id="checked" viewBox="0 0 26 26"><title>checked</title><path d="m.3,14c-0.2-0.2-0.3-0.5-0.3-0.7s0.1-0.5 0.3-0.7l1.4-1.4c0.4-0.4 1-0.4 1.4,0l.1,.1 5.5,5.9c0.2,0.2 0.5,0.2 0.7,0l13.4-13.9h0.1v-8.88178e-16c0.4-0.4 1-0.4 1.4,0l1.4,1.4c0.4,0.4 0.4,1 0,1.4l0,0-16,16.6c-0.2,0.2-0.4,0.3-0.7,0.3-0.3,0-0.5-0.1-0.7-0.3l-7.8-8.4-.2-.3z"/></symbol><symbol id="menu-button-of-three-horizontal-lines" viewBox="0 0 124 124"><title>menu-button-of-three-horizontal-lines</title><path d="M112,6H12C5.4,6,0,11.4,0,18s5.4,12,12,12h100c6.6,0,12-5.4,12-12S118.6,6,112,6z"/><path d="M112,50H12C5.4,50,0,55.4,0,62c0,6.6,5.4,12,12,12h100c6.6,0,12-5.4,12-12C124,55.4,118.6,50,112,50z"/><path d="M112,94H12c-6.6,0-12,5.4-12,12s5.4,12,12,12h100c6.6,0,12-5.4,12-12S118.6,94,112,94z"/></symbol><symbol id="user-shape" viewBox="0 0 438.529 438.529"><title>user-shape</title><path d="M219.265,219.267c30.271,0,56.108-10.71,77.518-32.121c21.412-21.411,32.12-47.248,32.12-77.515 c0-30.262-10.708-56.1-32.12-77.516C275.366,10.705,249.528,0,219.265,0S163.16,10.705,141.75,32.115 c-21.414,21.416-32.121,47.253-32.121,77.516c0,30.267,10.707,56.104,32.121,77.515 C163.166,208.557,189.001,219.267,219.265,219.267z"/><path d="M419.258,335.036c-0.668-9.609-2.002-19.985-3.997-31.121c-1.999-11.136-4.524-21.457-7.57-30.978 c-3.046-9.514-7.139-18.794-12.278-27.836c-5.137-9.041-11.037-16.748-17.703-23.127c-6.666-6.377-14.801-11.465-24.406-15.271 c-9.617-3.805-20.229-5.711-31.84-5.711c-1.711,0-5.709,2.046-11.991,6.139c-6.276,4.093-13.367,8.662-21.266,13.708 c-7.898,5.037-18.182,9.609-30.834,13.695c-12.658,4.093-25.361,6.14-38.118,6.14c-12.752,0-25.456-2.047-38.112-6.14 c-12.655-4.086-22.936-8.658-30.835-13.695c-7.898-5.046-14.987-9.614-21.267-13.708c-6.283-4.093-10.278-6.139-11.991-6.139 c-11.61,0-22.222,1.906-31.833,5.711c-9.613,3.806-17.749,8.898-24.412,15.271c-6.661,6.379-12.562,14.086-17.699,23.127 c-5.137,9.042-9.229,18.326-12.275,27.836c-3.045,9.521-5.568,19.842-7.566,30.978c-2,11.136-3.332,21.505-3.999,31.121 c-0.666,9.616-0.998,19.466-0.998,29.554c0,22.836,6.949,40.875,20.842,54.104c13.896,13.224,32.36,19.835,55.39,19.835h249.533 c23.028,0,41.49-6.611,55.388-19.835c13.901-13.229,20.845-31.265,20.845-54.104C420.264,354.502,419.932,344.652,419.258,335.036 z"/></symbol><symbol id="search" viewBox="0 0 56.966 56.966"><title>search</title><path d="M55.146,51.887L41.588,37.786c3.486-4.144,5.396-9.358,5.396-14.786c0-12.682-10.318-23-23-23s-23,10.318-23,23 s10.318,23,23,23c4.761,0,9.298-1.436,13.177-4.162l13.661,14.208c0.571,0.593,1.339,0.92,2.162,0.92 c0.779,0,1.518-0.297,2.079-0.837C56.255,54.982,56.293,53.08,55.146,51.887z M23.984,6c9.374,0,17,7.626,17,17s-7.626,17-17,17 s-17-7.626-17-17S14.61,6,23.984,6z"/></symbol><symbol id="heart-black-shape" viewBox="0 0 31.475 31.474"><title>heart-black-shape</title><path d="M31.434,12.136c0.027-0.27,0.041-0.545,0.041-0.822c0-4.544-3.683-8.229-8.228-8.229c-3.345,0-6.224,1.999-7.51,4.866 c-1.286-2.868-4.165-4.866-7.51-4.866C3.683,3.085,0,6.77,0,11.314c0,0.277,0.014,0.552,0.04,0.822c0,0,0.161,8.102,15.798,16.253 l0,0C31.473,20.238,31.434,12.136,31.434,12.136z M8.461,4.898c0.747,0,1.351,0.604,1.351,1.35c0,0.746-0.604,1.35-1.351,1.35 s-1.348-0.603-1.348-1.35C7.112,5.503,7.715,4.898,8.461,4.898z M4.241,14.999c-0.126,0.035-0.254,0.052-0.378,0.052 c-0.617,0-1.183-0.409-1.356-1.031c-0.212-0.755-0.312-1.449-0.338-2.081C2.043,8.612,4.093,6.976,4.195,6.895 C4.811,6.419,5.696,6.531,6.17,7.146c0.474,0.609,0.367,1.48-0.229,1.96c-0.073,0.061-0.962,0.86-0.956,2.57 c0.003,0.461,0.069,0.988,0.234,1.587C5.428,14.014,4.989,14.79,4.241,14.999z"/></symbol><symbol id="black" viewBox="0 0 475.084 475.085"><title>black</title><path d="M365.446,401.998c0,10.092,3.579,18.702,10.711,25.834c7.132,7.139,15.749,10.711,25.845,10.711 c10.081,0,18.698-3.572,25.83-10.711c7.139-7.132,10.711-15.742,10.711-25.834s-3.568-18.702-10.711-25.841 c-7.132-7.132-15.749-10.704-25.83-10.704c-10.096,0-18.713,3.572-25.845,10.704C369.025,383.296,365.446,391.906,365.446,401.998 z"/><path d="M469.658,78.51c-3.618-3.617-7.898-5.426-12.848-5.426H113.918c-0.193-1.331-0.621-3.756-1.287-7.277 c-0.666-3.523-1.188-6.329-1.569-8.425c-0.383-2.087-1.093-4.611-2.142-7.561c-1.047-2.952-2.284-5.286-3.711-6.995 c-1.425-1.718-3.328-3.189-5.708-4.43c-2.378-1.233-5.092-1.853-8.136-1.853H18.276c-4.952,0-9.234,1.812-12.85,5.424 C1.809,45.583,0,49.868,0,54.816s1.809,9.231,5.426,12.847c3.619,3.617,7.902,5.424,12.85,5.424h58.237l50.532,234.976 c-0.378,0.76-2.329,4.373-5.852,10.848c-3.521,6.475-6.328,12.135-8.42,16.988c-2.093,4.859-3.14,8.616-3.14,11.279 c0,4.948,1.809,9.232,5.424,12.854c3.621,3.606,7.902,5.421,12.851,5.421h18.272h255.815h18.261c4.948,0,9.232-1.814,12.847-5.421 c3.62-3.621,5.427-7.905,5.427-12.854c0-4.949-1.807-9.233-5.427-12.847c-3.614-3.614-7.898-5.428-12.847-5.428h-262.66 c4.57-9.138,6.854-15.222,6.854-18.268c0-1.909-0.238-4.004-0.715-6.283s-1.047-4.805-1.713-7.569 c-0.667-2.752-1.093-4.799-1.283-6.133l298.077-34.831c4.753-0.575,8.658-2.614,11.703-6.14c3.046-3.518,4.565-7.562,4.565-12.133 V91.363C475.082,86.415,473.278,82.132,469.658,78.51z"/><path d="M109.632,401.998c0,10.092,3.567,18.702,10.706,25.834c7.141,7.139,15.75,10.711,25.841,10.711 c10.085,0,18.699-3.572,25.835-10.711c7.139-7.132,10.71-15.742,10.71-25.834s-3.568-18.702-10.71-25.841 c-7.137-7.132-15.75-10.704-25.835-10.704c-10.09,0-18.704,3.572-25.841,10.704C113.203,383.296,109.632,391.906,109.632,401.998z "/></symbol></svg>